<svg version="1.1" id="Layer_1" xmlns="http://www.w3.org/2000/svg" xmlns:xlink="http://www.w3.org/1999/xlink" x="0px" y="0px"
	 width="100%" viewBox="0 0 256 256" enable-background="new 0 0 256 256" xml:space="preserve">
<path fill="#000000" opacity="1.000000" stroke="none" 
	d="
M144.468658,257.000000 
	C148.445724,254.478394 153.585083,254.992172 158.341293,253.728256 
	C203.230667,241.799255 233.699127,214.019974 250.027557,170.654633 
	C252.736130,163.461182 253.748856,155.902390 253.916306,148.198959 
	C254.041702,142.430069 255.525620,136.776520 255.136948,130.914062 
	C253.516830,106.477013 250.486679,82.324112 237.132248,61.057587 
	C229.660645,49.159325 219.862549,39.200520 206.913574,32.992737 
	C203.740845,31.471718 201.707291,28.851004 199.439819,26.500181 
	C185.136780,11.671381 167.113266,5.014869 147.230835,2.291396 
	C146.588364,2.203390 145.971008,1.931937 145.170975,1.373002 
	C182.299347,1.000000 219.598694,1.000000 256.949036,1.000000 
	C256.949036,86.221642 256.949036,171.443329 256.949036,257.000000 
	C219.646439,257.000000 182.291885,257.000000 144.468658,257.000000 
z"/>
<path fill="#000000" opacity="1.000000" stroke="none" 
	d="
M116.531342,1.000000 
	C114.738167,4.502168 110.703445,3.215404 107.696594,3.840880 
	C85.965363,8.361343 66.753761,18.144817 49.272888,31.337286 
	C31.761276,44.552952 20.885674,62.729473 12.319096,82.647400 
	C7.627725,93.555199 6.019518,105.191208 2.515109,116.350044 
	C1.785024,118.674797 3.387355,121.364502 1.246143,123.774002 
	C1.000000,83.075180 1.000000,42.150356 1.000000,1.000000 
	C39.353931,1.000000 77.708305,1.000000 116.531342,1.000000 
z"/>
<path fill="#000000" opacity="1.000000" stroke="none" 
	d="
M1.000000,143.468658 
	C2.419001,149.256165 3.567379,155.588425 5.301586,161.755951 
	C15.398861,197.665848 36.833595,224.587204 69.698059,242.320770 
	C82.971771,249.483215 97.022430,254.249847 112.093048,255.795349 
	C112.549217,255.842133 112.970673,256.227570 113.704155,256.727539 
	C76.406059,257.000000 38.812115,257.000000 1.000000,257.000000 
	C1.000000,219.312714 1.000000,181.625015 1.000000,143.468658 
z"/>
<path fill="#000000" opacity="1.000000" stroke="none" 
	d="
M170.216980,113.311523 
	C175.922363,102.180992 181.209930,91.292984 184.246521,79.449432 
	C185.235977,75.590248 187.387329,72.473320 191.635086,71.518181 
	C195.090042,70.741310 197.842117,71.997238 199.949036,74.708336 
	C200.536835,75.464699 201.136322,76.424622 201.211456,77.334045 
	C201.998337,86.859665 203.255493,96.279648 201.633713,105.972450 
	C200.414078,113.261879 201.164551,120.848900 200.380295,128.315231 
	C198.560623,145.638870 195.072662,162.534195 189.085754,178.900543 
	C187.890564,182.167847 186.772263,185.465424 185.490723,188.698364 
	C184.367294,191.532410 182.484818,193.273056 179.121338,193.376968 
	C175.825607,193.478775 173.720901,192.123520 172.377823,189.286301 
	C168.474548,181.040741 164.545700,172.806808 160.727203,164.522064 
	C160.106125,163.174500 159.894119,161.652252 157.931961,160.457642 
	C153.057938,166.496948 149.736343,173.555466 145.880463,180.221252 
	C141.637039,187.556992 137.893433,195.183701 133.993835,202.715622 
	C132.256409,206.071396 129.815918,208.640930 125.853958,208.128525 
	C121.428871,207.556183 119.661377,204.058090 118.861351,200.070908 
	C115.659393,184.112885 107.632675,170.380402 99.005943,156.924210 
	C98.757919,156.537338 98.273796,156.301834 97.408211,155.593506 
	C93.214775,162.032288 89.082214,168.343826 84.994049,174.683990 
	C84.204018,175.909241 84.491325,177.151810 85.066521,178.477356 
	C86.915375,182.737991 88.594185,187.072052 90.406624,191.348969 
	C92.643562,196.627609 91.036598,201.171463 86.104691,203.304840 
	C81.872910,205.135376 78.673981,203.294327 76.124771,197.954117 
	C75.438065,196.515579 75.551224,195.054260 75.091293,193.674026 
	C74.676117,192.428101 73.946556,191.286957 73.264565,189.916611 
	C69.151825,189.743240 67.497459,193.870270 64.277573,195.340256 
	C62.440899,196.178772 61.097778,197.231201 59.603313,195.195038 
	C58.202797,193.286880 59.618885,192.131134 60.868595,191.007446 
	C61.733269,190.229965 62.667301,189.526474 63.595913,188.823715 
	C71.470985,182.863937 72.257660,180.685333 69.310684,171.520187 
	C64.695267,157.166138 61.314175,142.488815 57.495594,127.920799 
	C54.154438,115.174202 52.585087,101.883400 46.506001,89.909882 
	C44.919239,86.784561 45.948547,84.165215 48.507450,81.925934 
	C50.911320,79.822311 53.311161,79.360222 56.250191,80.924110 
	C62.822819,84.421471 66.654243,90.559540 71.255989,95.987885 
	C80.158287,106.489281 88.035164,117.745392 95.895180,129.019760 
	C96.246155,129.523193 96.908714,129.809402 98.052963,130.666077 
	C100.607063,124.658852 103.341133,119.062263 105.394760,113.226250 
	C109.795174,100.721062 113.881111,88.104332 118.011940,75.505775 
	C119.093887,72.205948 119.605904,68.704025 120.851372,65.476959 
	C122.359657,61.568905 124.278175,57.627769 129.440292,57.771442 
	C134.481262,57.911739 136.401886,61.370781 137.673538,65.715073 
	C143.207428,84.620392 150.444473,102.904526 158.256577,120.963417 
	C159.356674,123.506462 159.315308,126.592178 161.973495,128.828461 
	C165.694244,124.260017 167.465775,118.726387 170.216980,113.311523 
M133.325363,101.079346 
	C131.667542,97.902565 131.230560,94.121414 128.486267,91.198311 
	C127.887383,91.949821 127.197365,92.508598 126.904007,93.228920 
	C120.339302,109.348083 113.033920,125.124443 105.028091,140.575592 
	C104.170761,142.230209 104.891312,143.600723 105.682480,144.764999 
	C113.348282,156.045853 119.099197,168.369675 125.299194,180.450623 
	C127.267494,184.285934 128.861877,184.477661 131.259521,180.878830 
	C138.157150,170.525513 145.073853,160.182068 151.138702,149.296829 
	C152.340469,147.139893 152.161377,145.454346 151.214294,143.269424 
	C145.240143,129.487289 139.435303,115.631775 133.325363,101.079346 
M79.419060,162.583710 
	C80.792267,164.937164 82.082092,164.030243 83.067772,162.344498 
	C85.742958,157.769302 88.309784,153.130676 90.910423,148.512039 
	C91.912109,146.733109 91.794693,145.036285 90.529587,143.404724 
	C83.738121,134.646057 77.005768,125.840630 70.116341,117.159828 
	C69.146767,115.938141 68.121552,113.884865 65.432526,115.025688 
	C68.269379,131.197266 73.602921,146.612198 79.419060,162.583710 
M167.986023,143.553833 
	C171.533173,151.093109 174.033829,159.126816 178.841904,167.187088 
	C184.668686,148.718109 186.626984,130.678650 187.599182,112.492172 
	C187.188583,112.383163 186.777969,112.274155 186.367371,112.165146 
	C180.301468,122.421783 174.235565,132.678421 167.986023,143.553833 
z"/>
</svg>