<svg xmlns="http://www.w3.org/2000/svg" id="Layer_1" data-name="Layer 1" viewBox="0 0 1117.27 201.67" width="100%" fill="currentColor"><path d="M63.34,199.04c-20.39,0-36.05-4.72-46.97-14.17C5.46,175.44,0,161.45,0,142.92v-19.15h35.19v16.73c0,17.99,8.3,26.98,24.91,26.98,15.52,0,23.28-8.81,23.28-26.44V2.63h39.25v138.67c0,17.27-5.05,31.21-15.16,41.82-10.11,10.61-24.82,15.92-44.13,15.92Z"></path><path d="M129.61,197.38v-39.25h39.52v39.25h-39.52Z"></path><path d="M209.48,197.61L192.69,4.06h47.1l3.79,81.21.27,48.73h.54c6.5-18.04,12.36-33.84,17.59-47.37L294.48,4.06h43.58l3.52,82.3.81,47.64h.54c6.86-19.67,12.9-36.09,18.14-49.27L393.29,4.06h47.91l-84.73,193.55h-46.29l-4.06-93.12-.54-37.36h-.54c-4.33,13.9-8.66,26.35-12.99,37.36l-36.27,93.12h-46.29Z"></path><path d="M 573.25 173.39 c -16.97 18.86 -39.52 28.29 -67.68 28.29 s -50.76 -9.43 -67.81 -28.29 c -17.05 -18.86 -25.58 -43 -25.58 -72.41 s 8.53 -53.6 25.58 -72.55 C 454.82 9.47 477.42 0 505.57 0 s 50.71 9.47 67.68 28.42 c 16.96 18.95 25.45 43.14 25.45 72.55 s -8.49 53.56 -25.45 72.41 Z M 466.19 150.24 c 9.29 12.82 22.51 19.22 39.66 19.22 s 30.23 -6.36 39.25 -19.09 c 9.02 -12.72 13.54 -29.19 13.54 -49.4 s -4.51 -36.72 -13.54 -49.54 c -9.03 -12.81 -22.11 -19.22 -39.25 -19.22 s -30.37 6.41 -39.66 19.22 c -9.3 12.82 -13.94 29.33 -13.94 49.54 s 4.64 36.46 13.94 49.27 Z"></path><path d="M599.48,197.61V4.06h97.02c20.8,0,37.82,4.92,51.06,14.75,13.24,9.84,19.86,23.51,19.86,41.01,0,23.46-11.73,39.07-35.18,46.83v.81c17.02,5.41,26.85,17.24,29.5,35.46,1.14,6.32,1.94,14.12,2.41,23.42.47,9.3,1.09,16.24,1.84,20.84.75,4.6,2.17,7.27,4.26,7.99v2.44h-48.79c-1.52-.9-2.7-3.52-3.55-7.85-.85-4.33-1.56-10.46-2.13-18.41-.57-7.94-1.23-14.17-1.99-18.68-2.65-18.41-13.9-27.61-33.76-27.61h-30.35v72.55h-50.21ZM649.69,89.6h37.73c9.83,0,17.31-2.07,22.41-6.23,5.11-4.15,7.66-9.92,7.66-17.33s-2.46-13.04-7.38-17.46c-4.92-4.42-12.1-6.63-21.56-6.63h-38.87v47.64Z"></path><path d="M770.26,197.61V4.06h97.02c20.8,0,37.82,4.92,51.06,14.75,13.24,9.84,19.86,23.51,19.86,41.01,0,23.46-11.73,39.07-35.18,46.83v.81c17.02,5.41,26.85,17.24,29.5,35.46,1.14,6.32,1.94,14.12,2.41,23.42.47,9.3,1.09,16.24,1.84,20.84.75,4.6,2.17,7.27,4.26,7.99v2.44h-48.79c-1.52-.9-2.7-3.52-3.55-7.85-.85-4.33-1.56-10.46-2.13-18.41-.57-7.94-1.23-14.17-1.99-18.68-2.65-18.41-13.9-27.61-33.76-27.61h-30.35v72.55h-50.21ZM820.47,89.6h37.73c9.83,0,17.31-2.07,22.41-6.23,5.11-4.15,7.66-9.92,7.66-17.33s-2.46-13.04-7.38-17.46c-4.92-4.42-12.11-6.63-21.56-6.63h-38.86v47.64Z"></path><path d="M941.04,197.61L1008.44,4.06h40.61l68.22,193.55h-40.88l-12.99-41.15h-69.84l-12.72,41.15h-39.79ZM1020.08,70.65l-17.33,55.77h51.16l-17.33-55.77-7.85-29.78h-.54c-3.25,12.99-5.96,22.92-8.12,29.78Z"></path></svg>
